<svg xmlns="http://www.w3.org/2000/svg" viewBox="0 0 213 176">
    <defs>
        <linearGradient x1="48.91%" y1="72.99%" x2="48.91%" y2="-1.28%" id="a">
            <stop stop-color="#D3D3D3" stop-opacity="0" offset="0%"/>
            <stop stop-color="#ACACAC" offset="100%"/>
        </linearGradient>
        <linearGradient x1="48.91%" y1="72.99%" x2="48.91%" y2="-15.31%" id="b">
            <stop stop-opacity="0" offset="0%"/>
            <stop offset="100%"/>
        </linearGradient>
        <linearGradient x1="50%" y1="17.8%" x2="50%" y2="87.09%" id="c">
            <stop offset="0%"/>
            <stop stop-opacity="0" offset="100%"/>
        </linearGradient>
        <linearGradient x1="50%" y1="100%" x2="50%" y2="4.27%" id="d">
            <stop stop-color="#6298FF" stop-opacity="0" offset="0%"/>
            <stop stop-color="#6298FF" offset="85.68%"/>
            <stop stop-color="#81ACFC" offset="100%"/>
        </linearGradient>
        <linearGradient x1="50%" y1="0%" x2="50%" y2="77.96%" id="e">
            <stop stop-color="#FDE464" offset="0%"/>
            <stop stop-color="#FDE464" stop-opacity="0" offset="100%"/>
        </linearGradient>
    </defs>
    <g fill="none" fill-rule="evenodd">
        <path d="M104.54 3.66c55.95 0 99.78 11.54 106.44 13.39l.87.24-26.05 148.38H27.01L0 17.66s46.42-14 104.54-14zm0 5c-25.1 0-49.85 2.6-73.15 6.91a370.66 370.66 0 00-22.02 4.75l-.64.16-1.24.32-1.75.45 25.44 139.42H181.6l24.54-139.73c-1.13-.3-2.35-.6-3.67-.92l-.94-.22c-6.32-1.5-13.49-3-21.4-4.4a434.83 434.83 0 00-75.6-6.74z" fill="url(#a)" fill-rule="nonzero" transform="translate(1 2)"/>
        <path d="M31.18 160.67L5.74 21.25l1.75-.45 1.24-.32.64-.16a370.66 370.66 0 0122.02-4.75 403.16 403.16 0 0173.15-6.91c26.3 0 51.83 2.53 75.59 6.74 7.91 1.4 15.08 2.9 21.4 4.4l.94.22c1.32.32 2.54.63 3.67.92L181.6 160.67H31.18z" fill="url(#b)" fill-rule="nonzero" transform="translate(1 2)"/>
        <path d="M58.5 3.46L74.4 166.57h62.58l15.55-163.5c-28.96-4.57-69.69-3.7-94.01.4" fill="url(#c)" transform="translate(1 2)"/>
        <path d="M58.5 3.46L74.4 166.57h62.58l15.55-163.5c-28.96-4.57-69.69-3.7-94.01.4" fill="url(#d)" opacity=".8" transform="translate(1 2)"/>
        <path d="M107.47 0C89.33 0 71.56 1.27 58.51 3.46l15.88 163.11h62.58l15.55-163.5C139.1.95 123.15 0 107.47 0m0 4.57c14.7 0 28.45.82 40.08 2.39L132.81 162H78.53L63.47 7.32c12.35-1.76 28.1-2.75 44-2.75" fill="url(#e)" transform="translate(1 2)"/>
        <path d="M95.8 31.54c0 2.58 1.4 3.83 3.17 4.29.8.2 1.4.92 1.4 1.75v.02a5.4 5.4 0 01-5.57 5.36c-4.63 0-6.13-3.85-6.13-6.82 0-5.07 4.63-10.14 15.55-10.14 9.47 0 16.66 4.37 16.66 11.25 0 15.73-23.01 10.3-30.1 21.61l.17.18c3.57-4.32 8.7-4.6 12.49-4.6 4.68 0 9.92 1.63 14.27 1.63 2.12 0 3.45-1.05 3.73-3.15h.56C122 63.87 118.43 69 109.51 69c-7.3 0-11.59-3.85-16.33-3.85-3.12 0-4.51 1.99-4.51 3.8l-.34.05a9.9 9.9 0 01-.33-2.62c0-14.34 18.34-15.8 18.34-31.87 0-5.36-2.73-7.7-5.91-7.7a4.59 4.59 0 00-4.63 4.73" fill="#FFF"/>
    </g>
</svg>
