<svg xmlns="http://www.w3.org/2000/svg" viewBox="0 0 213 176">
    <defs>
        <linearGradient x1="48.91%" y1="72.99%" x2="48.91%" y2="-2.13%" id="a">
            <stop stop-color="#D3D3D3" stop-opacity="0" offset="0%"/>
            <stop stop-color="#ACACAC" offset="100%"/>
        </linearGradient>
        <linearGradient x1="48.91%" y1="72.99%" x2="48.91%" y2="-15.88%" id="b">
            <stop stop-opacity="0" offset="0%"/>
            <stop offset="100%"/>
        </linearGradient>
        <linearGradient x1="50%" y1="17.8%" x2="50%" y2="87.09%" id="c">
            <stop offset="0%"/>
            <stop stop-opacity="0" offset="100%"/>
        </linearGradient>
        <linearGradient x1="50%" y1="100%" x2="50%" y2="4.27%" id="d">
            <stop stop-color="#CC85FF" stop-opacity="0" offset="0%"/>
            <stop stop-color="#CC85FF" offset="85.47%"/>
            <stop stop-color="#DAA7FF" offset="100%"/>
        </linearGradient>
        <linearGradient x1="50%" y1="0%" x2="50%" y2="77.96%" id="e">
            <stop stop-color="#FDE464" offset="0%"/>
            <stop stop-color="#FDE464" stop-opacity="0" offset="100%"/>
        </linearGradient>
    </defs>
    <g fill="none" fill-rule="evenodd">
        <path d="M104.54 3.66c55.95 0 99.78 11.54 106.44 13.39l.87.24-26.05 148.38H27.01L0 17.66s46.42-14 104.54-14zm0 5c-25.1 0-49.85 2.6-73.15 6.91a370.66 370.66 0 00-22.02 4.75l-.64.16-1.24.32-1.75.45 25.44 139.42H181.6l24.54-139.73c-1.13-.3-2.35-.6-3.67-.92l-.94-.22c-6.32-1.5-13.49-3-21.4-4.4a434.83 434.83 0 00-75.6-6.74z" fill="url(#a)" fill-rule="nonzero" transform="translate(1 2)"/>
        <path d="M31.18 160.67L5.74 21.25l1.75-.45 1.24-.32.64-.16a370.66 370.66 0 0122.02-4.75 403.16 403.16 0 0173.15-6.91c26.3 0 51.83 2.53 75.59 6.74 7.91 1.4 15.08 2.9 21.4 4.4l.94.22c1.32.32 2.54.63 3.67.92L181.6 160.67H31.18z" fill="url(#b)" fill-rule="nonzero" transform="translate(1 2)"/>
        <path d="M58.5 3.46L74.4 166.57h62.58l15.55-163.5c-28.96-4.57-69.69-3.7-94.01.4" fill="url(#c)" transform="translate(1 2)"/>
        <path d="M58.5 3.46L74.4 166.57h62.58l15.55-163.5c-28.96-4.57-69.69-3.7-94.01.4" fill="url(#d)" opacity=".8" transform="translate(1 2)"/>
        <path d="M48.97 0C30.82 0 13.05 1.27 0 3.46l15.88 163.11h62.58L94.01 3.07C80.59.95 64.64 0 48.97 0m0 4.57c14.7 0 28.44.82 40.08 2.39L74.3 162H20.03L4.97 7.32c12.35-1.76 28.09-2.75 44-2.75" transform="translate(59.5 2)" fill="url(#e)"/>
        <path d="M109.04 60.24c0-7.08-6.97-11.78-15.53-11.78l2.44-22.2c5.44.36 15.3.95 18.14.95 5.38 0 6.4-1.19 6.4-3.21h.57c.45 1.49.68 3.1.68 4.88 0 6.66-4.08 10.18-10.32 10.18-5.32 0-10.6-3.04-15.92-3.75l-1.25 11.24c2.78-3.57 7.93-6 13.38-6 11.05 0 16.15 6.9 16.15 13.68 0 7.14-4.25 14.82-18.25 14.82-11.1 0-15.53-5.18-15.53-10.36 0-3.03 1.76-6.54 6.06-6.54a5.36 5.36 0 015.44 6.66c-2.32.18-4.42 1.67-4.42 4.58a4.68 4.68 0 005 4.82c2.88 0 6.96-1.84 6.96-7.97" fill="#FFF"/>
    </g>
</svg>
